<svg xmlns="http://www.w3.org/2000/svg" viewBox="0 0 80 80" width="80" height="80">
	<style>
		tspan { white-space:pre }
		.shp0 { fill: none;stroke: #808080;stroke-width: 1.982 } 
		.shp1 { fill: #808080 } 
	</style>
	<path id="Layer" class="shp0" d="M79 40C79 61.6 61.6 79 40 79C18.4 79 1 61.6 1 40C1 18.4 18.4 1 40 1C61.6 1 79 18.4 79 40Z" />
	<g id="Layer">
		<path id="Layer" fill-rule="evenodd" class="shp1" d="M39.6 32L39.6 34.8C39.6 35.6 39.4 36.4 39.2 37C39 37.6 38.6 38 38.2 38.4C37.6 38.8 37.2 39 36.4 39.2C35.6 39.4 34.8 39.4 34 39.4L25.4 39.4L25.4 27.4L34 27.4C35 27.4 35.6 27.4 36.4 27.6C37.2 27.8 37.8 28 38.2 28.4C38.6 28.8 39 29.2 39.2 29.8C39.4 30.4 39.6 31 39.6 32ZM35.6 32C35.6 31.4 35.6 31.2 35.2 31C35 30.8 34.6 30.8 34 30.8L29.4 30.8L29.4 35.8L34 35.8C34.4 35.8 34.8 35.8 35.2 35.6C35.4 35.4 35.6 35 35.6 34.6L35.6 32Z" />
		<path id="Layer" class="shp1" d="M44.8 31C45.2 30.8 45.6 30.8 46 30.8L54.4 30.8L54.4 27.4L46 27.4C45.2 27.4 44.4 27.4 43.6 27.6C42.8 27.8 42.4 28 41.8 28.4C41.4 28.8 41 29.2 40.8 29.8C40.6 30.4 40.4 31.2 40.4 32L40.4 34.6C40.4 35.4 40.6 36.2 40.8 36.8C41 37.4 41.4 37.8 41.8 38.2C42.2 38.6 42.8 38.8 43.6 39C44.4 39.2 45 39.2 46 39.2L54.4 39.2L54.4 33.2L50.4 33.2L50.4 35.8L46 35.8C45.4 35.8 45 35.8 44.8 35.6C44.4 35.4 44.4 35.2 44.4 34.6L44.4 32C44.2 31.4 44.4 31.2 44.8 31Z" />
		<path id="Layer" class="shp1" d="M20.6 40.8L20.6 48C20.6 48.4 20.4 48.8 20.2 49C19.8 49.2 19.4 49.2 19 49.2L16.4 49.2C15.8 49.2 15.4 49.2 15.2 49C14.8 48.8 14.8 48.6 14.8 48L14.8 40.8L10.8 40.8L10.8 48C10.8 48.8 11 49.6 11.2 50.2C11.4 50.8 11.8 51.2 12.2 51.6C12.8 52 13.4 52.4 14 52.4C14.8 52.6 15.4 52.6 16.4 52.6L19 52.6C19.8 52.6 20.6 52.6 21.4 52.4C22.2 52.2 22.6 52 23.2 51.6C23.6 51.2 24 50.8 24.2 50.2C24.4 49.6 24.6 48.8 24.6 48L24.6 40.8L20.6 40.8Z" />
		<path id="Layer" fill-rule="evenodd" class="shp1" d="M39 45.6L39 46.4C39 47.2 38.8 48 38.6 48.6C38.4 49.2 38 49.6 37.6 50C37 50.4 36.6 50.6 35.8 50.8C35 51 34.2 51 33.4 51L29.4 51L29.4 52.8L25.4 52.8L25.4 40.8L33.4 40.8C34.4 40.8 35 40.8 35.8 41C36.6 41.2 37.2 41.4 37.6 41.8C38 42.2 38.4 42.6 38.6 43.2C38.8 43.8 39 44.6 39 45.6ZM35.2 45.4C35.2 44.8 35.2 44.6 34.8 44.4C34.6 44.2 34.2 44.2 33.6 44.2L29.6 44.2L29.6 47.4L33.6 47.4C34 47.4 34.4 47.4 34.8 47.2C35 47 35.2 46.6 35.2 46.2L35.2 45.4Z" />
		<path id="Layer" class="shp1" d="M68.8 30.8L68.8 27.4L55 27.4L55 39.4L68.8 39.4L68.8 36L58.8 36L58.8 34.8L68 34.8L68 32L59 32L59 30.8L68.8 30.8L68.8 30.8Z" />
		<path id="Layer" class="shp1" d="M24.6 30.8L24.6 27.4L10.8 27.4L10.8 39.4L24.6 39.4L24.6 36L14.6 36L14.6 34.8L23.6 34.8L23.6 32L14.8 32L14.8 30.8L24.6 30.8L24.6 30.8Z" />
		<path id="Layer" fill-rule="evenodd" class="shp1" d="M69 40.8L69 52.8L40.4 52.8L40.4 40.8L69 40.8ZM54.6 45.6L56 45.6L56 44.2L54.6 44.2L54.6 45.6ZM44.8 45.8L44.87 45.8L42.6 49.2L44.2 49.2L46.4 45.8L54.4 45.8L54.4 44.4L49.8 44.4C49.2 44.6 49 44.8 48.8 45C48.6 45.2 48.4 45.6 48.4 45.6L48.4 44.4L46 44.4C46 44.4 45.8 44.4 45.6 44.6C45.4 44.6 45 45.6 44.8 45.8ZM46.4 45.8L44.87 45.8L45 45.6L46.4 45.8ZM60.4 46L60.2 46C60.2 46.39 60.29 46.53 60.4 46.63C60.4 46.25 60.4 46.05 60.4 46.01C60.27 46 60.2 46 60.2 46L59 46L59 47.6C59 47.6 59 48 58.6 48C58.2 48 56.4 48 56.4 48C56.4 48 56 48 56 47.6C56 47.2 56 45.8 56 45.8L54.6 45.8L54.6 47.8C54.6 47.6 54.2 46.6 53.4 46.6C53 46.6 48.6 46.2 48.6 46.2C48.6 46.6 48.8 46.8 49 47C49.4 47.4 49.8 47.4 49.8 47.4C50 47.4 53.2 47.6 53.2 47.6C53.2 47.6 53.4 47.6 53.4 47.8C53.4 47.8 53.4 48 53.2 48C52.8 48 48.4 48 48.4 48L48.4 46L47 46L47 49.4L53.4 49.4C54.4 49.2 54.6 48.2 54.6 48.2C54.8 49.4 55.8 49.4 55.8 49.4L59 49.4C59 49.4 60.4 49.2 60.4 48L60.4 49.2L65.2 49.2C66.4 49.2 66.6 48 66.6 48C66.8 47.8 66.6 47.6 66.4 47.6C66.4 47.2 66 46.4 65.2 46.4C64.68 46.23 61.27 46.05 60.4 46.01C60.4 46 60.4 46 60.4 46ZM60.4 44.2L59 44.2L59 45.6L60.4 45.6L60.4 44.2ZM60.6 46.8C61 47.2 61.4 47.2 61.4 47.2C61.6 47.2 64.8 47.4 64.8 47.4C65 47.4 65.2 47.4 65.2 47.6L65.2 47.8C65.2 47.8 65.2 47.8 65 47.8C64.8 47.8 60.4 47.8 60.4 47.8C60.4 47.3 60.4 46.92 60.4 46.63C60.46 46.69 60.53 46.73 60.6 46.8ZM66.8 44.2L62 44.2C61.4 44.4 61.2 44.6 61 44.8C60.8 45 60.6 45.4 60.6 45.4L60.6 45.6L66.8 45.6L66.8 44.2Z" />
	</g>
</svg>