<?xml version="1.0" encoding="utf-8"?>
<!-- Generator: Adobe Illustrator 25.3.1, SVG Export Plug-In . SVG Version: 6.00 Build 0)  -->
<svg version="1.1" id="Layer_1" xmlns="http://www.w3.org/2000/svg" xmlns:xlink="http://www.w3.org/1999/xlink" x="0px" y="0px" width="80" height="80"
	 viewBox="0 0 80 80" style="enable-background:new 0 0 80 80;" xml:space="preserve">
<style type="text/css">
	.st0{fill:none;stroke:#808080;stroke-width:1.982;}
	.st1{fill-rule:evenodd;clip-rule:evenodd;fill:#808080;}
</style>
<path id="Layer" class="st0" d="M79,40c0,21.6-17.4,39-39,39S1,61.6,1,40S18.4,1,40,1S79,18.4,79,40z"/>
<g>
	<path id="icon_3_" class="st1" d="M50.6,15.2c3.9,0,7.1,3.2,7.1,7.1v0H29.4v29.1c0,0.1-0.1,0.3-0.3,0.3h-6.6
		c-0.1,0-0.3-0.1-0.3-0.3V22.3v0c0-3.9,3.2-7.1,7.1-7.1h0H50.6z M50.6,57.7H22.3v0c0,3.9,3.2,7.1,7.1,7.1h21.3h0
		c3.9,0,7.1-3.2,7.1-7.1v0V28.6c0-0.1-0.1-0.3-0.3-0.3h-6.6c-0.1,0-0.3,0.1-0.3,0.3V57.7z"/>
</g>
</svg>
