<svg xmlns="http://www.w3.org/2000/svg" width="40" height="40" fill="none" viewBox="0 0 40 40">
    <path stroke="gray" stroke-miterlimit="10" stroke-width=".991" d="M39.505 20c0 10.772-8.733 19.505-19.505 19.505C9.228 39.505.495 30.771.495 20 .495 9.228 9.229.495 20 .495 30.772.495 39.505 9.229 39.505 20z"/>
    <path fill="gray" d="M14.854 31.26c-.052-.389-.233-2.846.043-4.088.254-1.113 1.651-7.085 1.651-7.085s-.423-.856-.423-2.119c0-1.99 1.143-3.467 2.54-3.467 1.208 0 1.78.92 1.78 2.012 0 1.22-.763 3.06-1.165 4.752-.339 1.412.699 2.568 2.096 2.568 2.5 0 4.426-2.675 4.426-6.528 0-3.403-2.435-5.8-5.887-5.8-4.002 0-6.374 3.039-6.374 6.185 0 1.22.466 2.547 1.059 3.254.106.15.127.257.106.406-.106.45-.339 1.413-.381 1.606-.064.257-.212.32-.466.192C12.1 22.314 11 19.724 11 17.626 11 13.131 14.24 9 20.318 9 25.209 9 29 12.532 29 17.22c0 4.9-3.07 8.86-7.306 8.86-1.419 0-2.774-.748-3.24-1.626 0 0-.699 2.718-.868 3.382-.318 1.241-1.708 3.655-1.758 3.746-.05.09-.228.418-.575.418s-.376-.567-.399-.74z"/>
</svg>
