<svg xmlns="http://www.w3.org/2000/svg" width="40" height="40" fill="none" viewBox="0 0 40 40">
    <path stroke="gray" stroke-miterlimit="10" stroke-width=".991" d="M39.505 20c0 10.772-8.733 19.505-19.505 19.505C9.228 39.505.495 30.771.495 20 .495 9.228 9.229.495 20 .495 30.772.495 39.505 9.229 39.505 20z"/>
    <path fill="gray" d="M14.38 30.048h-3.9V15.393h3.9v14.655zm-1.948-16.345c-.468.016-.93-.108-1.326-.356-.397-.248-.71-.608-.901-1.035-.191-.428-.25-.902-.17-1.363.08-.46.295-.887.62-1.225.323-.337.74-.57 1.197-.67.457-.1.933-.06 1.368.112.435.173.808.471 1.072.857.265.386.408.842.412 1.31v.019c.01.613-.224 1.204-.65 1.645-.425.441-1.01.695-1.622.706zM29.96 30.048h-3.894v-7.466c0-4.487-5.194-4.147-5.194 0v7.467h-3.9V15.393h3.9v2.352c1.813-3.445 9.089-3.7 9.089 3.3l-.001 9.003z"/>
</svg>
